<?xml version="1.0" encoding="UTF-8" standalone="no"?>
<!-- Created with Inkscape (http://www.inkscape.org/) -->

<svg
   width="174.01968mm"
   height="251.395mm"
   viewBox="0 0 174.01968 251.395"
   version="1.1"
   id="svg5"
   xml:space="preserve"
   inkscape:version="1.2.1 (9c6d41e, 2022-07-14)"
   sodipodi:docname="pushpin.svg"
   xmlns:inkscape="http://www.inkscape.org/namespaces/inkscape"
   xmlns:sodipodi="http://sodipodi.sourceforge.net/DTD/sodipodi-0.dtd"
   xmlns="http://www.w3.org/2000/svg"
   xmlns:svg="http://www.w3.org/2000/svg"><sodipodi:namedview
     id="namedview7"
     pagecolor="#ffffff"
     bordercolor="#000000"
     borderopacity="0.25"
     inkscape:showpageshadow="2"
     inkscape:pageopacity="0.0"
     inkscape:pagecheckerboard="0"
     inkscape:deskcolor="#d1d1d1"
     inkscape:document-units="mm"
     showgrid="false"
     inkscape:zoom="0.43565115"
     inkscape:cx="661.0794"
     inkscape:cy="767.81618"
     inkscape:window-width="1512"
     inkscape:window-height="855"
     inkscape:window-x="0"
     inkscape:window-y="38"
     inkscape:window-maximized="0"
     inkscape:current-layer="layer1" /><defs
     id="defs2" /><g
     inkscape:label="Layer 1"
     inkscape:groupmode="layer"
     id="layer1"
     transform="translate(-18.382859,-22.335054)"><path
       style="fill:#ffffff;stroke-width:3.77953"
       d="m 506.1228,983.04087 c -4.97667,-1.23827 -8.35316,-4.08759 -10.77518,-9.09284 C 493.66236,970.46534 488.50373,939.44193 471.57796,831 459.68845,754.825 449.96952,692.1696 449.98034,691.76577 c 0.0108,-0.40382 -54.09284,-0.85382 -120.23034,-1 L 209.5,690.5 203.71715,687.66038 C 192.9013,682.34934 185.19823,672.3 182.80374,660.37696 c -1.35602,-6.75216 0.28991,-29.57883 3.23216,-44.82521 7.60761,-39.42173 29.58568,-78.97182 59.90495,-107.80043 23.89633,-22.72145 48.83757,-34.15158 78.55915,-36.00225 l 4,-0.24907 0.25332,-146.10298 0.25333,-146.10299 -7.30145,-0.61719 C 291.90034,176.1574 265.01821,152.88388 257.39555,123 c -2.19515,-8.60587 -2.19515,-25.394125 0,-34 C 263.68216,64.353978 283.61355,43.41272 308,35.831567 L 315.5,33.5 H 512 708.5 l 8,2.815937 c 21.56698,7.591405 40.23447,26.198372 47.2066,47.053539 2.45872,7.354568 2.71814,9.514367 2.71814,22.630524 0,13.11616 -0.25942,15.27596 -2.71814,22.63052 C 754.46773,156.26601 724.72852,179 697.81634,179 H 694 V 325.5 472 h 5.36901 c 13.41779,0 30.37072,4.67254 45.72475,12.60259 40.67619,21.00842 77.91766,72.05089 90.0329,123.39741 5.20232,22.04832 6.49339,49.59499 2.78855,59.49707 -2.76345,7.38599 -11.24269,16.53369 -18.73723,20.21438 L 813.5,690.5 l -127.20817,0.26856 -127.20817,0.26855 -0.55028,3.23145 C 558.23072,696.04585 551.7043,757.575 544.03023,831 c -7.67407,73.425 -14.44645,135.51685 -15.04972,137.98189 -2.62035,10.70691 -12.32936,16.67858 -22.85771,14.05898 z M 444.10078,470.86394 c 4.01922,-1.34328 8.42539,-5.18545 10.7385,-9.36394 1.52427,-2.7535 1.66072,-13.92801 1.66072,-136 0,-128.81126 -0.06,-133.12091 -1.90629,-136.83924 -4.00785,-8.07175 -15.08302,-11.74964 -23.78724,-7.89935 -2.52594,1.11734 -5.80026,3.67489 -7.41494,5.79176 l -2.89153,3.79084 -0.27463,133.078 c -0.24394,118.20347 -0.10141,133.53618 1.27516,137.17732 3.35917,8.88523 13.26537,13.38444 22.60025,10.26461 z"
       id="path338"
       transform="matrix(0.26458333,0,0,0.26458333,-29.856638,13.471512)" /></g></svg>
